<?xml version="1.0" encoding="UTF-8"?> <svg xmlns="http://www.w3.org/2000/svg" width="120" height="120" viewBox="0 0 120 120" fill="none"> <path d="M119.999 59.9997C119.999 48.1332 116.481 36.5331 109.888 26.6664C103.296 16.7996 93.9253 9.10929 82.9621 4.56786C71.999 0.0264337 59.9354 -1.16214 48.2968 1.15242C36.6582 3.46699 25.9672 9.18075 17.5759 17.5712C9.18449 25.9616 3.46956 36.6519 1.15371 48.2903C-1.16214 59.9287 0.0251151 71.9924 4.56534 82.956C9.10556 93.9197 16.7948 103.291 26.6609 109.884C36.5269 116.478 48.1266 119.998 59.9931 119.999L59.9997 120L60.0063 119.999C75.9126 119.98 91.1616 113.652 102.408 102.404C113.655 91.1557 119.981 75.906 119.999 59.9997ZM62.3997 115.144V71.9996H79.1996C79.8361 71.9996 80.4466 71.7468 80.8967 71.2967C81.3468 70.8466 81.5996 70.2362 81.5996 69.5997C81.5996 68.9631 81.3468 68.3527 80.8967 67.9026C80.4466 67.4525 79.8361 67.1997 79.1996 67.1997H62.3997V50.3998C62.4032 47.2183 63.6686 44.1681 65.9183 41.9184C68.1679 39.6687 71.2181 38.4033 74.3996 38.3998H83.9996C84.6361 38.3998 85.2466 38.147 85.6966 37.6969C86.1467 37.2468 86.3996 36.6364 86.3996 35.9998C86.3996 35.3633 86.1467 34.7529 85.6966 34.3028C85.2466 33.8527 84.6361 33.5999 83.9996 33.5999H74.3996C69.9455 33.6048 65.6753 35.3763 62.5257 38.5259C59.3762 41.6754 57.6047 45.9457 57.5997 50.3998V67.1997H40.7998C40.1633 67.1997 39.5529 67.4525 39.1028 67.9026C38.6527 68.3527 38.3998 68.9631 38.3998 69.5997C38.3998 70.2362 38.6527 70.8466 39.1028 71.2967C39.5529 71.7468 40.1633 71.9996 40.7998 71.9996H57.5997V115.144C43.1814 114.516 29.5822 108.267 19.7154 97.7345C9.8487 87.2021 4.49924 73.2244 4.81305 58.7958C5.12687 44.3672 11.079 30.6353 21.3943 20.5419C31.7096 10.4485 45.5677 4.7964 59.9997 4.7964C74.4317 4.7964 88.2898 10.4485 98.6051 20.5419C108.92 30.6353 114.873 44.3672 115.186 58.7958C115.5 73.2244 110.151 87.2021 100.284 97.7345C90.4173 108.267 76.8181 114.516 62.3997 115.144V115.144Z" fill="white"></path> </svg> 