<?xml version="1.0" encoding="UTF-8"?> <svg xmlns="http://www.w3.org/2000/svg" width="116" height="116" viewBox="0 0 116 116" fill="none"> <path d="M58 31.4167C52.7423 31.4167 47.6027 32.9757 43.2311 35.8968C38.8595 38.8178 35.4522 42.9695 33.4402 47.827C31.4282 52.6845 30.9017 58.0295 31.9275 63.1861C32.9532 68.3428 35.485 73.0795 39.2027 76.7972C42.9205 80.515 47.6572 83.0468 52.8138 84.0725C57.9705 85.0983 63.3155 84.5718 68.173 82.5598C73.0305 80.5478 77.1822 77.1405 80.1032 72.7689C83.0242 68.3973 84.5833 63.2577 84.5833 58C84.5753 50.9521 81.772 44.1952 76.7884 39.2116C71.8048 34.228 65.0479 31.4247 58 31.4167ZM58 79.75C53.6983 79.75 49.4931 78.4744 45.9163 76.0845C42.3396 73.6945 39.5518 70.2976 37.9056 66.3234C36.2594 62.3491 35.8287 57.9759 36.6679 53.7568C37.5071 49.5377 39.5786 45.6622 42.6204 42.6204C45.6622 39.5786 49.5377 37.5071 53.7568 36.6679C57.9759 35.8287 62.3491 36.2594 66.3234 37.9056C70.2977 39.5518 73.6945 42.3396 76.0845 45.9163C78.4744 49.4931 79.75 53.6983 79.75 58C79.7436 63.7665 77.45 69.295 73.3725 73.3725C69.295 77.45 63.7665 79.7436 58 79.75ZM84.5833 0H31.4167C23.0873 0.00943453 15.1019 3.32243 9.21215 9.21215C3.32243 15.1019 0.00943453 23.0873 0 31.4167V84.5833C0.00943453 92.9126 3.32243 100.898 9.21215 106.788C15.1019 112.678 23.0873 115.991 31.4167 116H84.5833C92.9127 115.991 100.898 112.678 106.788 106.788C112.678 100.898 115.991 92.9126 116 84.5833V31.4167C115.991 23.0873 112.678 15.1019 106.788 9.21215C100.898 3.32243 92.9127 0.00943453 84.5833 0ZM111.167 84.5833C111.159 91.6312 108.355 98.3881 103.372 103.372C98.3881 108.355 91.6312 111.159 84.5833 111.167H31.4167C24.3688 111.159 17.6119 108.355 12.6282 103.372C7.64463 98.3881 4.84133 91.6312 4.83333 84.5833V31.4167C4.84133 24.3688 7.64463 17.6118 12.6282 12.6282C17.6119 7.64463 24.3688 4.84133 31.4167 4.83333H84.5833C91.6312 4.84133 98.3881 7.64463 103.372 12.6282C108.355 17.6118 111.159 24.3688 111.167 31.4167V84.5833ZM94.25 26.5833C94.25 27.5393 93.9665 28.4738 93.4354 29.2686C92.9043 30.0634 92.1495 30.6829 91.2663 31.0487C90.3831 31.4146 89.4113 31.5103 88.4737 31.3238C87.5361 31.1373 86.6749 30.677 85.999 30.001C85.323 29.3251 84.8627 28.4638 84.6762 27.5263C84.4897 26.5887 84.5854 25.6169 84.9512 24.7337C85.3171 23.8505 85.9366 23.0957 86.7314 22.5646C87.5262 22.0335 88.4607 21.75 89.4167 21.75C90.6981 21.7516 91.9265 22.2613 92.8326 23.1674C93.7387 24.0735 94.2484 25.3019 94.25 26.5833Z" fill="white"></path> </svg> 