<?xml version="1.0" encoding="UTF-8"?> <svg xmlns="http://www.w3.org/2000/svg" width="120" height="109" viewBox="0 0 120 109" fill="none"> <path d="M117.599 1.67562C116.648 0.853692 115.49 0.307845 114.251 0.097279C113.011 -0.113287 111.738 0.0194637 110.569 0.481135L4.37882 42.1989C2.99085 42.7444 1.81683 43.7247 1.03238 44.9931C0.247925 46.2614 -0.10478 47.7496 0.0270267 49.2351C0.158833 50.7206 0.768064 52.1235 1.76358 53.2339C2.75909 54.3443 4.08737 55.1026 5.54971 55.3952L34.3727 61.1605V96.7373C34.3583 98.106 34.7575 99.4472 35.518 100.585C36.2786 101.723 37.365 102.605 38.6351 103.116C39.4858 103.472 40.3986 103.657 41.3209 103.66C42.2224 103.657 43.1144 103.475 43.9451 103.125C44.7757 102.775 45.5286 102.263 46.1599 101.619L62.6134 85.1658L86.8903 106.53C88.1413 107.641 89.7558 108.255 91.4289 108.257C92.1563 108.256 92.8791 108.142 93.571 107.917C94.7121 107.555 95.7384 106.901 96.5473 106.018C97.3563 105.136 97.9198 104.057 98.1815 102.889L119.824 8.45012C120.106 7.22538 120.048 5.94671 119.656 4.75257C119.264 3.55844 118.552 2.49438 117.599 1.67562ZM4.61127 48.8278C4.55421 48.3308 4.6664 47.829 4.9297 47.4035C5.193 46.9781 5.59205 46.6538 6.06237 46.4832L103.402 8.24183L36.1403 56.8198L6.45248 50.8819C5.95922 50.7967 5.50914 50.5475 5.17502 50.1748C4.8409 49.802 4.64228 49.3275 4.61127 48.8278ZM42.9044 98.365C42.5825 98.6868 42.1724 98.9059 41.7259 98.9947C41.2795 99.0834 40.8168 99.0378 40.3963 98.8636C39.9758 98.6893 39.6164 98.3943 39.3635 98.0159C39.1106 97.6374 38.9757 97.1924 38.9757 96.7373V64.3642L59.1508 82.1186L42.9044 98.365ZM115.337 7.42192L93.6942 101.86C93.6051 102.249 93.4167 102.608 93.1473 102.902C92.8779 103.196 92.5368 103.414 92.1573 103.537C91.7779 103.659 91.3732 103.681 90.9829 103.6C90.5925 103.519 90.2299 103.338 89.9306 103.074L40.3595 59.4505L114.965 5.5692C115.161 5.83058 115.296 6.13259 115.361 6.45308C115.425 6.77356 115.417 7.10441 115.337 7.42134V7.42192Z" fill="white"></path> </svg> 