<?xml version="1.0" encoding="UTF-8"?> <svg xmlns="http://www.w3.org/2000/svg" width="120" height="120" viewBox="0 0 120 120" fill="none"> <path d="M59.9996 0C49.4953 0.00275572 39.1757 2.76228 30.0722 8.00276C20.9687 13.2432 13.4002 20.7811 8.12307 29.863C2.84598 38.9449 0.0451593 49.2527 0.000541545 59.7562C-0.0440762 70.2596 2.66907 80.5908 7.86882 89.7172L2.46584 108.625C2.11323 109.86 2.09715 111.166 2.41929 112.409C2.74143 113.652 3.39007 114.786 4.29798 115.694C5.2059 116.601 6.34006 117.25 7.58295 117.572C8.82585 117.894 10.1323 117.878 11.3668 117.525L30.2769 112.123C38.2605 116.674 47.1829 119.331 56.3559 119.889C65.5289 120.446 74.7074 118.889 83.1835 115.338C91.6596 111.787 99.2066 106.337 105.243 99.4078C111.279 92.4785 115.642 84.2555 117.997 75.3729C120.352 66.4904 120.634 57.1857 118.824 48.1766C117.013 39.1675 113.156 30.6946 107.552 23.4116C101.948 16.1286 94.7461 10.2301 86.5013 6.17094C78.2565 2.11179 69.1895 0.000532439 59.9996 0ZM59.9996 115.191C50.0858 115.198 40.3538 112.531 31.8285 107.472C31.5474 107.304 31.235 107.196 30.9106 107.154C30.5862 107.112 30.2566 107.137 29.9421 107.227L10.048 112.91C9.63651 113.028 9.20109 113.033 8.78686 112.926C8.37263 112.818 7.99466 112.602 7.6921 112.299C7.38953 111.997 7.17339 111.619 7.06605 111.205C6.95871 110.79 6.96409 110.355 7.08162 109.944L12.7648 90.0514C12.8547 89.7369 12.8793 89.4074 12.8372 89.083C12.7951 88.7586 12.6872 88.4463 12.52 88.1651C6.30272 77.6912 3.72433 65.4551 5.1865 53.3632C6.64868 41.2712 12.0693 30.0023 20.604 21.3118C29.1386 12.6214 40.3081 6.99748 52.3723 5.31612C64.4366 3.63476 76.7183 5.99039 87.3042 12.016C97.8901 18.0417 106.186 27.399 110.899 38.6304C115.612 49.8617 116.478 62.3364 113.362 74.1112C110.246 85.8859 103.323 96.2995 93.6707 103.73C84.0189 111.16 72.1805 115.19 59.9996 115.191ZM90.3066 71.1204L78.0307 64.1064C76.9201 63.4725 75.6608 63.1457 74.3821 63.1593C73.1034 63.1729 71.8514 63.5265 70.7545 64.1838L62.4704 69.1538C57.4556 66.6131 53.3818 62.5394 50.8412 57.5249L55.8116 49.2413C56.4688 48.1444 56.8224 46.8925 56.8359 45.6139C56.8494 44.3353 56.5223 43.0761 55.8884 41.9656L48.8744 29.6906C48.3016 28.6912 47.4754 27.8606 46.4791 27.2825C45.4827 26.7045 44.3516 26.3994 43.1996 26.398C38.1204 26.3992 33.2484 28.4125 29.6501 31.9971C26.0517 35.5817 24.0201 40.4457 23.9997 45.5246C23.9904 52.1487 25.287 58.7096 27.8156 64.8322C30.3442 70.9548 34.0551 76.5189 38.736 81.2062C43.4169 85.8935 48.976 89.6122 55.0954 92.1494C61.2148 94.6866 67.7743 95.9926 74.3989 95.9928H74.4709C79.5503 95.9726 84.4148 93.9412 87.9997 90.3431C91.5847 86.745 93.5982 81.8732 93.5994 76.7942C93.5981 75.6424 93.293 74.5114 92.7149 73.5152C92.1368 72.519 91.3061 71.693 90.3066 71.1204ZM74.4643 91.1931H74.3995C68.4058 91.1931 62.471 90.0116 56.9344 87.7162C51.3978 85.4207 46.368 82.0563 42.1329 77.8155C37.8977 73.5747 34.5402 68.5406 32.2524 63.0011C29.9645 57.4617 28.7913 51.5256 28.7997 45.5324C28.8162 41.7245 30.3407 38.0783 33.0395 35.3917C35.7382 32.7052 39.3915 31.1971 43.1996 31.1976C43.5055 31.198 43.8059 31.279 44.0705 31.4325C44.3352 31.586 44.5546 31.8065 44.7068 32.0718L51.7208 44.3475C51.9321 44.7176 52.0411 45.1372 52.0367 45.5634C52.0323 45.9895 51.9146 46.4068 51.6956 46.7725L46.0616 56.1606C45.8624 56.4925 45.7464 56.8677 45.7237 57.2541C45.7009 57.6406 45.772 58.0268 45.9308 58.3798C49.0634 65.351 54.6442 70.9312 61.616 74.0632C61.969 74.2222 62.3552 74.2933 62.7417 74.2705C63.1282 74.2477 63.5034 74.1317 63.8353 73.9324L73.2235 68.2988C73.5892 68.0798 74.0066 67.962 74.4329 67.9575C74.8592 67.9529 75.279 68.0619 75.6493 68.273L87.9252 75.2877C88.1906 75.4397 88.4112 75.6591 88.5647 75.9236C88.7182 76.1881 88.7991 76.4884 88.7994 76.7942C88.7999 80.602 87.2919 84.2549 84.6052 86.9535C81.9186 89.652 78.2723 91.1765 74.4643 91.1931Z" fill="white"></path> </svg> 